<?xml version="1.0" encoding="UTF-8" standalone="no"?>
<!DOCTYPE svg PUBLIC "-//W3C//DTD SVG 1.1//EN"
 "http://www.w3.org/Graphics/SVG/1.1/DTD/svg11.dtd">
<!-- Generated by graphviz version 2.36.0 (20140111.2315)
 -->
<!-- Title: controllers_diagram Pages: 1 -->
<svg width="792pt" height="705pt"
 viewBox="0.00 0.00 792.00 705.00" xmlns="http://www.w3.org/2000/svg" xmlns:xlink="http://www.w3.org/1999/xlink">
<g id="graph0" class="graph" transform="scale(1 1) rotate(0) translate(4 701)">
<title>controllers_diagram</title>
<polygon fill="none" stroke="none" points="-4,4 -4,-701 788,-701 788,4 -4,4"/>
<!-- _diagram_info -->
<g id="node1" class="node"><title>_diagram_info</title>
<text text-anchor="start" x="386" y="-135.6" font-family="Times,serif" font-size="13.00">Controllers diagram</text>
<text text-anchor="start" x="386" y="-121.6" font-family="Times,serif" font-size="13.00">Date: Apr 07 2016 &#45; 01:12</text>
<text text-anchor="start" x="386" y="-107.6" font-family="Times,serif" font-size="13.00">Migration version: 0</text>
<text text-anchor="start" x="386" y="-93.6" font-family="Times,serif" font-size="13.00">Generated by RailRoady 1.4.2</text>
<text text-anchor="start" x="386" y="-79.6" font-family="Times,serif" font-size="13.00">http://railroady.prestonlee.com</text>
</g>
<!-- ApplicationController -->
<g id="node2" class="node"><title>ApplicationController</title>
<path fill="none" stroke="black" d="M624,-180.5C624,-180.5 772,-180.5 772,-180.5 778,-180.5 784,-186.5 784,-192.5 784,-192.5 784,-277.5 784,-277.5 784,-283.5 778,-289.5 772,-289.5 772,-289.5 624,-289.5 624,-289.5 618,-289.5 612,-283.5 612,-277.5 612,-277.5 612,-192.5 612,-192.5 612,-186.5 618,-180.5 624,-180.5"/>
<text text-anchor="middle" x="698" y="-274.3" font-family="Times,serif" font-size="14.00">ApplicationController</text>
<polyline fill="none" stroke="black" points="612,-266.5 784,-266.5 "/>
<polyline fill="none" stroke="black" points="612,-242.5 784,-242.5 "/>
<polyline fill="none" stroke="black" points="612,-218.5 784,-218.5 "/>
<text text-anchor="start" x="620" y="-203.3" font-family="Times,serif" font-size="14.00">_layout</text>
<text text-anchor="start" x="620" y="-188.3" font-family="Times,serif" font-size="14.00">logged_in_user</text>
</g>
<!-- MicropostsController -->
<g id="node3" class="node"><title>MicropostsController</title>
<path fill="none" stroke="black" d="M30,-54.5C30,-54.5 177,-54.5 177,-54.5 183,-54.5 189,-60.5 189,-66.5 189,-66.5 189,-180.5 189,-180.5 189,-186.5 183,-192.5 177,-192.5 177,-192.5 30,-192.5 30,-192.5 24,-192.5 18,-186.5 18,-180.5 18,-180.5 18,-66.5 18,-66.5 18,-60.5 24,-54.5 30,-54.5"/>
<text text-anchor="middle" x="103.5" y="-177.3" font-family="Times,serif" font-size="14.00">MicropostsController</text>
<polyline fill="none" stroke="black" points="18,-169.5 189,-169.5 "/>
<text text-anchor="start" x="26" y="-154.3" font-family="Times,serif" font-size="14.00">create</text>
<text text-anchor="start" x="26" y="-139.3" font-family="Times,serif" font-size="14.00">destroy</text>
<polyline fill="none" stroke="black" points="18,-131.5 189,-131.5 "/>
<polyline fill="none" stroke="black" points="18,-107.5 189,-107.5 "/>
<text text-anchor="start" x="26" y="-92.3" font-family="Times,serif" font-size="14.00">_layout</text>
<text text-anchor="start" x="26" y="-77.3" font-family="Times,serif" font-size="14.00">correct_user</text>
<text text-anchor="start" x="26" y="-62.3" font-family="Times,serif" font-size="14.00">micropost_params</text>
</g>
<!-- PagesController -->
<g id="node4" class="node"><title>PagesController</title>
<path fill="none" stroke="black" d="M228,-0.5C228,-0.5 336,-0.5 336,-0.5 342,-0.5 348,-6.5 348,-12.5 348,-12.5 348,-81.5 348,-81.5 348,-87.5 342,-93.5 336,-93.5 336,-93.5 228,-93.5 228,-93.5 222,-93.5 216,-87.5 216,-81.5 216,-81.5 216,-12.5 216,-12.5 216,-6.5 222,-0.5 228,-0.5"/>
<text text-anchor="middle" x="282" y="-78.3" font-family="Times,serif" font-size="14.00">PagesController</text>
<polyline fill="none" stroke="black" points="216,-70.5 348,-70.5 "/>
<text text-anchor="start" x="224" y="-55.3" font-family="Times,serif" font-size="14.00">home</text>
<polyline fill="none" stroke="black" points="216,-47.5 348,-47.5 "/>
<polyline fill="none" stroke="black" points="216,-23.5 348,-23.5 "/>
<text text-anchor="start" x="224" y="-8.3" font-family="Times,serif" font-size="14.00">_layout</text>
</g>
<!-- SessionsController -->
<g id="node5" class="node"><title>SessionsController</title>
<path fill="none" stroke="black" d="M624,-324.5C624,-324.5 752,-324.5 752,-324.5 758,-324.5 764,-330.5 764,-336.5 764,-336.5 764,-435.5 764,-435.5 764,-441.5 758,-447.5 752,-447.5 752,-447.5 624,-447.5 624,-447.5 618,-447.5 612,-441.5 612,-435.5 612,-435.5 612,-336.5 612,-336.5 612,-330.5 618,-324.5 624,-324.5"/>
<text text-anchor="middle" x="688" y="-432.3" font-family="Times,serif" font-size="14.00">SessionsController</text>
<polyline fill="none" stroke="black" points="612,-424.5 764,-424.5 "/>
<text text-anchor="start" x="620" y="-409.3" font-family="Times,serif" font-size="14.00">create</text>
<text text-anchor="start" x="620" y="-394.3" font-family="Times,serif" font-size="14.00">destroy</text>
<text text-anchor="start" x="620" y="-379.3" font-family="Times,serif" font-size="14.00">new</text>
<polyline fill="none" stroke="black" points="612,-371.5 764,-371.5 "/>
<polyline fill="none" stroke="black" points="612,-347.5 764,-347.5 "/>
<text text-anchor="start" x="620" y="-332.3" font-family="Times,serif" font-size="14.00">_layout</text>
</g>
<!-- RelationshipsController -->
<g id="node6" class="node"><title>RelationshipsController</title>
<path fill="none" stroke="black" d="M12,-558.5C12,-558.5 175,-558.5 175,-558.5 181,-558.5 187,-564.5 187,-570.5 187,-570.5 187,-654.5 187,-654.5 187,-660.5 181,-666.5 175,-666.5 175,-666.5 12,-666.5 12,-666.5 6,-666.5 0,-660.5 0,-654.5 0,-654.5 0,-570.5 0,-570.5 0,-564.5 6,-558.5 12,-558.5"/>
<text text-anchor="middle" x="93.5" y="-651.3" font-family="Times,serif" font-size="14.00">RelationshipsController</text>
<polyline fill="none" stroke="black" points="0,-643.5 187,-643.5 "/>
<text text-anchor="start" x="8" y="-628.3" font-family="Times,serif" font-size="14.00">create</text>
<text text-anchor="start" x="8" y="-613.3" font-family="Times,serif" font-size="14.00">destroy</text>
<polyline fill="none" stroke="black" points="0,-605.5 187,-605.5 "/>
<polyline fill="none" stroke="black" points="0,-581.5 187,-581.5 "/>
<text text-anchor="start" x="8" y="-566.3" font-family="Times,serif" font-size="14.00">_layout</text>
</g>
<!-- TopicsController -->
<g id="node7" class="node"><title>TopicsController</title>
<path fill="none" stroke="black" d="M444,-414.5C444,-414.5 556,-414.5 556,-414.5 562,-414.5 568,-420.5 568,-426.5 568,-426.5 568,-615.5 568,-615.5 568,-621.5 562,-627.5 556,-627.5 556,-627.5 444,-627.5 444,-627.5 438,-627.5 432,-621.5 432,-615.5 432,-615.5 432,-426.5 432,-426.5 432,-420.5 438,-414.5 444,-414.5"/>
<text text-anchor="middle" x="500" y="-612.3" font-family="Times,serif" font-size="14.00">TopicsController</text>
<polyline fill="none" stroke="black" points="432,-604.5 568,-604.5 "/>
<text text-anchor="start" x="440" y="-589.3" font-family="Times,serif" font-size="14.00">create</text>
<text text-anchor="start" x="440" y="-574.3" font-family="Times,serif" font-size="14.00">destroy</text>
<text text-anchor="start" x="440" y="-559.3" font-family="Times,serif" font-size="14.00">edit</text>
<text text-anchor="start" x="440" y="-544.3" font-family="Times,serif" font-size="14.00">index</text>
<text text-anchor="start" x="440" y="-529.3" font-family="Times,serif" font-size="14.00">new</text>
<text text-anchor="start" x="440" y="-514.3" font-family="Times,serif" font-size="14.00">show</text>
<text text-anchor="start" x="440" y="-499.3" font-family="Times,serif" font-size="14.00">update</text>
<polyline fill="none" stroke="black" points="432,-491.5 568,-491.5 "/>
<polyline fill="none" stroke="black" points="432,-467.5 568,-467.5 "/>
<text text-anchor="start" x="440" y="-452.3" font-family="Times,serif" font-size="14.00">_layout</text>
<text text-anchor="start" x="440" y="-437.3" font-family="Times,serif" font-size="14.00">correct_user</text>
<text text-anchor="start" x="440" y="-422.3" font-family="Times,serif" font-size="14.00">topic_params</text>
</g>
<!-- UsersController -->
<g id="node8" class="node"><title>UsersController</title>
<path fill="none" stroke="black" d="M228,-126.5C228,-126.5 335,-126.5 335,-126.5 341,-126.5 347,-132.5 347,-138.5 347,-138.5 347,-387.5 347,-387.5 347,-393.5 341,-399.5 335,-399.5 335,-399.5 228,-399.5 228,-399.5 222,-399.5 216,-393.5 216,-387.5 216,-387.5 216,-138.5 216,-138.5 216,-132.5 222,-126.5 228,-126.5"/>
<text text-anchor="middle" x="281.5" y="-384.3" font-family="Times,serif" font-size="14.00">UsersController</text>
<polyline fill="none" stroke="black" points="216,-376.5 347,-376.5 "/>
<text text-anchor="start" x="224" y="-361.3" font-family="Times,serif" font-size="14.00">create</text>
<text text-anchor="start" x="224" y="-346.3" font-family="Times,serif" font-size="14.00">destroy</text>
<text text-anchor="start" x="224" y="-331.3" font-family="Times,serif" font-size="14.00">edit</text>
<text text-anchor="start" x="224" y="-316.3" font-family="Times,serif" font-size="14.00">followers</text>
<text text-anchor="start" x="224" y="-301.3" font-family="Times,serif" font-size="14.00">following</text>
<text text-anchor="start" x="224" y="-286.3" font-family="Times,serif" font-size="14.00">index</text>
<text text-anchor="start" x="224" y="-271.3" font-family="Times,serif" font-size="14.00">new</text>
<text text-anchor="start" x="224" y="-256.3" font-family="Times,serif" font-size="14.00">show</text>
<text text-anchor="start" x="224" y="-241.3" font-family="Times,serif" font-size="14.00">update</text>
<polyline fill="none" stroke="black" points="216,-233.5 347,-233.5 "/>
<polyline fill="none" stroke="black" points="216,-209.5 347,-209.5 "/>
<text text-anchor="start" x="224" y="-194.3" font-family="Times,serif" font-size="14.00">_layout</text>
<text text-anchor="start" x="224" y="-179.3" font-family="Times,serif" font-size="14.00">admin_user</text>
<text text-anchor="start" x="224" y="-164.3" font-family="Times,serif" font-size="14.00">correct_user</text>
<text text-anchor="start" x="224" y="-149.3" font-family="Times,serif" font-size="14.00">logged_in_user</text>
<text text-anchor="start" x="224" y="-134.3" font-family="Times,serif" font-size="14.00">user_params</text>
</g>
<!-- PasswordResetsController -->
<g id="node9" class="node"><title>PasswordResetsController</title>
<path fill="none" stroke="black" d="M390,-180.5C390,-180.5 572,-180.5 572,-180.5 578,-180.5 584,-186.5 584,-192.5 584,-192.5 584,-366.5 584,-366.5 584,-372.5 578,-378.5 572,-378.5 572,-378.5 390,-378.5 390,-378.5 384,-378.5 378,-372.5 378,-366.5 378,-366.5 378,-192.5 378,-192.5 378,-186.5 384,-180.5 390,-180.5"/>
<text text-anchor="middle" x="481" y="-363.3" font-family="Times,serif" font-size="14.00">PasswordResetsController</text>
<polyline fill="none" stroke="black" points="378,-355.5 584,-355.5 "/>
<text text-anchor="start" x="386" y="-340.3" font-family="Times,serif" font-size="14.00">create</text>
<text text-anchor="start" x="386" y="-325.3" font-family="Times,serif" font-size="14.00">edit</text>
<text text-anchor="start" x="386" y="-310.3" font-family="Times,serif" font-size="14.00">new</text>
<text text-anchor="start" x="386" y="-295.3" font-family="Times,serif" font-size="14.00">update</text>
<polyline fill="none" stroke="black" points="378,-287.5 584,-287.5 "/>
<polyline fill="none" stroke="black" points="378,-263.5 584,-263.5 "/>
<text text-anchor="start" x="386" y="-248.3" font-family="Times,serif" font-size="14.00">_layout</text>
<text text-anchor="start" x="386" y="-233.3" font-family="Times,serif" font-size="14.00">check_expiration</text>
<text text-anchor="start" x="386" y="-218.3" font-family="Times,serif" font-size="14.00">get_user</text>
<text text-anchor="start" x="386" y="-203.3" font-family="Times,serif" font-size="14.00">user_params</text>
<text text-anchor="start" x="386" y="-188.3" font-family="Times,serif" font-size="14.00">valid_user</text>
</g>
<!-- StaticPagesController -->
<g id="node10" class="node"><title>StaticPagesController</title>
<path fill="none" stroke="black" d="M228,-558.5C228,-558.5 378,-558.5 378,-558.5 384,-558.5 390,-564.5 390,-570.5 390,-570.5 390,-684.5 390,-684.5 390,-690.5 384,-696.5 378,-696.5 378,-696.5 228,-696.5 228,-696.5 222,-696.5 216,-690.5 216,-684.5 216,-684.5 216,-570.5 216,-570.5 216,-564.5 222,-558.5 228,-558.5"/>
<text text-anchor="middle" x="303" y="-681.3" font-family="Times,serif" font-size="14.00">StaticPagesController</text>
<polyline fill="none" stroke="black" points="216,-673.5 390,-673.5 "/>
<text text-anchor="start" x="224" y="-658.3" font-family="Times,serif" font-size="14.00">about</text>
<text text-anchor="start" x="224" y="-643.3" font-family="Times,serif" font-size="14.00">contact</text>
<text text-anchor="start" x="224" y="-628.3" font-family="Times,serif" font-size="14.00">help</text>
<text text-anchor="start" x="224" y="-613.3" font-family="Times,serif" font-size="14.00">home</text>
<polyline fill="none" stroke="black" points="216,-605.5 390,-605.5 "/>
<polyline fill="none" stroke="black" points="216,-581.5 390,-581.5 "/>
<text text-anchor="start" x="224" y="-566.3" font-family="Times,serif" font-size="14.00">_layout</text>
</g>
<!-- AccountActivationsController -->
<g id="node11" class="node"><title>AccountActivationsController</title>
<path fill="none" stroke="black" d="M174,-432.5C174,-432.5 380,-432.5 380,-432.5 386,-432.5 392,-438.5 392,-444.5 392,-444.5 392,-513.5 392,-513.5 392,-519.5 386,-525.5 380,-525.5 380,-525.5 174,-525.5 174,-525.5 168,-525.5 162,-519.5 162,-513.5 162,-513.5 162,-444.5 162,-444.5 162,-438.5 168,-432.5 174,-432.5"/>
<text text-anchor="middle" x="277" y="-510.3" font-family="Times,serif" font-size="14.00">AccountActivationsController</text>
<polyline fill="none" stroke="black" points="162,-502.5 392,-502.5 "/>
<text text-anchor="start" x="170" y="-487.3" font-family="Times,serif" font-size="14.00">edit</text>
<polyline fill="none" stroke="black" points="162,-479.5 392,-479.5 "/>
<polyline fill="none" stroke="black" points="162,-455.5 392,-455.5 "/>
<text text-anchor="start" x="170" y="-440.3" font-family="Times,serif" font-size="14.00">_layout</text>
</g>
<!-- CommentsController -->
<g id="node12" class="node"><title>CommentsController</title>
<path fill="none" stroke="black" d="M30,-234.5C30,-234.5 173,-234.5 173,-234.5 179,-234.5 185,-240.5 185,-246.5 185,-246.5 185,-375.5 185,-375.5 185,-381.5 179,-387.5 173,-387.5 173,-387.5 30,-387.5 30,-387.5 24,-387.5 18,-381.5 18,-375.5 18,-375.5 18,-246.5 18,-246.5 18,-240.5 24,-234.5 30,-234.5"/>
<text text-anchor="middle" x="101.5" y="-372.3" font-family="Times,serif" font-size="14.00">CommentsController</text>
<polyline fill="none" stroke="black" points="18,-364.5 185,-364.5 "/>
<text text-anchor="start" x="26" y="-349.3" font-family="Times,serif" font-size="14.00">create</text>
<text text-anchor="start" x="26" y="-334.3" font-family="Times,serif" font-size="14.00">destroy</text>
<text text-anchor="start" x="26" y="-319.3" font-family="Times,serif" font-size="14.00">downvote</text>
<text text-anchor="start" x="26" y="-304.3" font-family="Times,serif" font-size="14.00">upvote</text>
<polyline fill="none" stroke="black" points="18,-296.5 185,-296.5 "/>
<polyline fill="none" stroke="black" points="18,-272.5 185,-272.5 "/>
<text text-anchor="start" x="26" y="-257.3" font-family="Times,serif" font-size="14.00">_layout</text>
<text text-anchor="start" x="26" y="-242.3" font-family="Times,serif" font-size="14.00">comment_params</text>
</g>
</g>
</svg>
