<?xml version="1.0" encoding="UTF-8" standalone="no"?>
<!DOCTYPE svg PUBLIC "-//W3C//DTD SVG 1.1//EN"
 "http://www.w3.org/Graphics/SVG/1.1/DTD/svg11.dtd">
<!-- Generated by graphviz version 2.36.0 (20140111.2315)
 -->
<!-- Title: models_diagram Pages: 1 -->
<svg width="625pt" height="322pt"
 viewBox="0.00 0.00 625.00 322.00" xmlns="http://www.w3.org/2000/svg" xmlns:xlink="http://www.w3.org/1999/xlink">
<g id="graph0" class="graph" transform="scale(1 1) rotate(0) translate(4 318)">
<title>models_diagram</title>
<polygon fill="none" stroke="none" points="-4,4 -4,-318 621,-318 621,4 -4,4"/>
<!-- _diagram_info -->
<g id="node1" class="node"><title>_diagram_info</title>
<text text-anchor="start" x="8" y="-299.6" font-family="Times,serif" font-size="13.00">Models diagram</text>
<text text-anchor="start" x="8" y="-285.6" font-family="Times,serif" font-size="13.00">Date: Apr 07 2016 &#45; 01:12</text>
<text text-anchor="start" x="8" y="-271.6" font-family="Times,serif" font-size="13.00">Migration version: 0</text>
<text text-anchor="start" x="8" y="-257.6" font-family="Times,serif" font-size="13.00">Generated by RailRoady 1.4.2</text>
<text text-anchor="start" x="8" y="-243.6" font-family="Times,serif" font-size="13.00">http://railroady.prestonlee.com</text>
</g>
<!-- Comment -->
<g id="node2" class="node"><title>Comment</title>
<ellipse fill="none" stroke="black" cx="207" cy="-92" rx="55.3436" ry="18"/>
<text text-anchor="middle" x="207" y="-88.3" font-family="Times,serif" font-size="14.00">Comment</text>
</g>
<!-- Vote -->
<g id="node8" class="node"><title>Vote</title>
<ellipse fill="none" stroke="black" cx="207" cy="-18" rx="31.2965" ry="18"/>
<text text-anchor="middle" x="207" y="-14.3" font-family="Times,serif" font-size="14.00">Vote</text>
</g>
<!-- Comment&#45;&gt;Vote -->
<g id="edge1" class="edge"><title>Comment&#45;&gt;Vote</title>
<path fill="none" stroke="#678779" d="M207,-65.7923C207,-59.5805 207,-52.8963 207,-46.5786"/>
<ellipse fill="none" stroke="#678779" cx="207" cy="-69.937" rx="4" ry="4"/>
<polygon fill="#678779" stroke="#678779" points="207,-46.4407 211.5,-36.4406 207,-41.4407 207,-36.4407 207,-36.4407 207,-36.4407 207,-41.4407 202.5,-36.4407 207,-46.4407 207,-46.4407"/>
</g>
<!-- Page -->
<g id="node3" class="node"><title>Page</title>
<ellipse fill="none" stroke="black" cx="524" cy="-275" rx="33.2209" ry="18"/>
<text text-anchor="middle" x="524" y="-271.3" font-family="Times,serif" font-size="14.00">Page</text>
</g>
<!-- User -->
<g id="node4" class="node"><title>User</title>
<ellipse fill="none" stroke="black" cx="272" cy="-275" rx="32.2457" ry="18"/>
<text text-anchor="middle" x="272" y="-271.3" font-family="Times,serif" font-size="14.00">User</text>
</g>
<!-- User&#45;&gt;Comment -->
<g id="edge4" class="edge"><title>User&#45;&gt;Comment</title>
<path fill="none" stroke="#6031f0" d="M249.598,-253.633C243.276,-247.912 236.381,-241.698 230,-236 203.929,-212.719 185.386,-215.855 171,-184 161.039,-161.944 173.309,-136.259 186.153,-117.813"/>
<ellipse fill="none" stroke="#6031f0" cx="252.725" cy="-256.467" rx="4.00002" ry="4.00002"/>
<polygon fill="#6031f0" stroke="#6031f0" points="186.259,-117.67 195.829,-112.316 189.236,-113.653 192.214,-109.636 192.214,-109.636 192.214,-109.636 189.236,-113.653 188.598,-106.957 186.259,-117.67 186.259,-117.67"/>
</g>
<!-- User&#45;&gt;User -->
<g id="edge7" class="edge"><title>User&#45;&gt;User</title>
<path fill="none" stroke="#666509" d="M312.745,-280.333C318.298,-279.444 322,-277.666 322,-275 322,-272.334 318.298,-270.556 312.745,-269.667"/>
<polygon fill="#666509" stroke="#666509" points="312.738,-280.333 302.461,-276.509 307.749,-280.666 302.76,-280.999 302.76,-280.999 302.76,-280.999 307.749,-280.666 303.06,-285.489 312.738,-280.333 312.738,-280.333"/>
<polygon fill="#666509" stroke="#666509" points="312.738,-269.667 303.06,-264.511 307.749,-269.334 302.76,-269.001 302.76,-269.001 302.76,-269.001 307.749,-269.334 302.461,-273.491 312.738,-269.667 312.738,-269.667"/>
<text text-anchor="middle" x="355" y="-271.3" font-family="Times,serif" font-size="14.00">following</text>
</g>
<!-- User&#45;&gt;User -->
<g id="edge8" class="edge"><title>User&#45;&gt;User</title>
<path fill="none" stroke="#32194e" d="M309.966,-285.43C344.736,-289.37 388,-285.893 388,-275 388,-264.107 344.736,-260.63 309.966,-264.57"/>
<polygon fill="#32194e" stroke="#32194e" points="309.873,-285.417 300.584,-279.589 304.92,-284.732 299.968,-284.047 299.968,-284.047 299.968,-284.047 304.92,-284.732 299.351,-288.504 309.873,-285.417 309.873,-285.417"/>
<polygon fill="#32194e" stroke="#32194e" points="309.873,-264.583 299.351,-261.496 304.92,-265.268 299.968,-265.953 299.968,-265.953 299.968,-265.953 304.92,-265.268 300.584,-270.411 309.873,-264.583 309.873,-264.583"/>
<text text-anchor="middle" x="421" y="-271.3" font-family="Times,serif" font-size="14.00">followers</text>
</g>
<!-- Micropost -->
<g id="node5" class="node"><title>Micropost</title>
<ellipse fill="none" stroke="black" cx="238" cy="-166" rx="58.2422" ry="18"/>
<text text-anchor="middle" x="238" y="-162.3" font-family="Times,serif" font-size="14.00">Micropost</text>
</g>
<!-- User&#45;&gt;Micropost -->
<g id="edge2" class="edge"><title>User&#45;&gt;Micropost</title>
<path fill="none" stroke="#f64aa4" d="M264.068,-249.038C258.821,-232.526 251.945,-210.886 246.572,-193.977"/>
<ellipse fill="none" stroke="#f64aa4" cx="265.326" cy="-252.996" rx="4.00001" ry="4.00001"/>
<polygon fill="#f64aa4" stroke="#f64aa4" points="246.478,-193.679 247.738,-182.786 244.963,-188.914 243.449,-184.149 243.449,-184.149 243.449,-184.149 244.963,-188.914 239.16,-185.512 246.478,-193.679 246.478,-193.679"/>
</g>
<!-- Topic -->
<g id="node6" class="node"><title>Topic</title>
<ellipse fill="none" stroke="black" cx="350" cy="-166" rx="35.6194" ry="18"/>
<text text-anchor="middle" x="350" y="-162.3" font-family="Times,serif" font-size="14.00">Topic</text>
</g>
<!-- User&#45;&gt;Topic -->
<g id="edge3" class="edge"><title>User&#45;&gt;Topic</title>
<path fill="none" stroke="#3f2b2f" d="M271.727,-248.695C272.752,-233.837 276.2,-215.406 286,-202 292.513,-193.09 302.008,-186.19 311.701,-180.965"/>
<ellipse fill="none" stroke="#3f2b2f" cx="271.544" cy="-252.969" rx="4" ry="4"/>
<polygon fill="#3f2b2f" stroke="#3f2b2f" points="311.972,-180.833 322.933,-180.503 316.467,-178.645 320.963,-176.457 320.963,-176.457 320.963,-176.457 316.467,-178.645 318.994,-172.41 311.972,-180.833 311.972,-180.833"/>
</g>
<!-- Relationship -->
<g id="node7" class="node"><title>Relationship</title>
<ellipse fill="none" stroke="black" cx="473" cy="-166" rx="68.3417" ry="18"/>
<text text-anchor="middle" x="473" y="-162.3" font-family="Times,serif" font-size="14.00">Relationship</text>
</g>
<!-- User&#45;&gt;Relationship -->
<g id="edge5" class="edge"><title>User&#45;&gt;Relationship</title>
<path fill="none" stroke="#96c155" d="M277.635,-249.112C282.51,-233.278 291.187,-213.632 306,-202 337.397,-177.345 354.93,-192.199 394,-184 399.805,-182.782 405.848,-181.502 411.891,-180.215"/>
<ellipse fill="none" stroke="#96c155" cx="276.503" cy="-253.131" rx="4.00001" ry="4.00001"/>
<polygon fill="#96c155" stroke="#96c155" points="412.241,-180.14 422.961,-182.451 417.131,-179.095 422.02,-178.05 422.02,-178.05 422.02,-178.05 417.131,-179.095 421.08,-173.649 412.241,-180.14 412.241,-180.14"/>
<text text-anchor="middle" x="378.5" y="-206.3" font-family="Times,serif" font-size="14.00">active_relationships</text>
</g>
<!-- User&#45;&gt;Relationship -->
<g id="edge6" class="edge"><title>User&#45;&gt;Relationship</title>
<path fill="none" stroke="#28b1cc" d="M312.225,-271.004C351.965,-266.049 412.268,-252.898 451,-218 458.079,-211.622 462.971,-202.569 466.309,-193.857"/>
<ellipse fill="none" stroke="#28b1cc" cx="308.046" cy="-271.485" rx="4.00001" ry="4.00001"/>
<polygon fill="#28b1cc" stroke="#28b1cc" points="466.32,-193.823 473.726,-185.735 467.886,-189.074 469.452,-184.326 469.452,-184.326 469.452,-184.326 467.886,-189.074 465.179,-182.917 466.32,-193.823 466.32,-193.823"/>
<text text-anchor="middle" x="540" y="-206.3" font-family="Times,serif" font-size="14.00">passive_relationships</text>
</g>
<!-- Topic&#45;&gt;Comment -->
<g id="edge9" class="edge"><title>Topic&#45;&gt;Comment</title>
<path fill="none" stroke="#b0cda0" d="M318.407,-149.093C296.727,-138.177 267.845,-123.635 244.921,-112.093"/>
<ellipse fill="none" stroke="#b0cda0" cx="322.169" cy="-150.987" rx="4.00002" ry="4.00002"/>
<polygon fill="#b0cda0" stroke="#b0cda0" points="244.752,-112.008 237.844,-103.491 240.286,-109.759 235.82,-107.511 235.82,-107.511 235.82,-107.511 240.286,-109.759 233.796,-111.53 244.752,-112.008 244.752,-112.008"/>
</g>
</g>
</svg>
